<svg xmlns="http://www.w3.org/2000/svg" fill="none" viewBox="0 0 48 48" id="Bomb-Fill--Streamline-Rounded-Fill-Material">
  <desc>
    Bomb Fill Streamline Icon: https://streamlinehq.com
  </desc>
  <path fill="#000000" d="M33.5498 14.3996c-0.1667 0 -0.3 -0.0167 -0.4 -0.05 -0.1 -0.0333 -0.2167 -0.0833 -0.35 -0.15l-1.3 -0.75c-0.6 -0.3667 -1.2417 -0.4583 -1.925 -0.275 -0.6833 0.1833 -1.1917 0.575 -1.525 1.175l-0.2 0.4 3.05 1.75c0.5333 0.3333 0.8833 0.7917 1.05 1.375 0.1667 0.5833 0.0833 1.1417 -0.25 1.675l-1.7 3.05c0.7667 1.2 1.3417 2.475 1.725 3.825 0.3833 1.35 0.575 2.7417 0.575 4.175 0 4.1667 -1.4583 7.7083 -4.375 10.625 -2.9167 2.9167 -6.4583 4.375 -10.625 4.375s-7.70833 -1.475 -10.625 -4.425c-2.91666 -2.95 -4.375 -6.5083 -4.375 -10.675 0 -4.1667 1.45 -7.6917 4.35 -10.575 2.9 -2.8833 6.4333 -4.325 10.6 -4.325h0.6l1.7 -3c0.3 -0.5667 0.75 -0.925 1.35 -1.075 0.6 -0.15 1.1833 -0.075 1.75 0.225l2.6 1.5 0.25 -0.4c0.7667 -1.3 1.875 -2.1417 3.325 -2.525 1.45 -0.38332 2.8417 -0.2083 4.175 0.525l1.3 0.75c0.2333 0.1333 0.4167 0.3167 0.55 0.55 0.1333 0.2333 0.2 0.4833 0.2 0.75 0 0.4333 -0.1417 0.7917 -0.425 1.075s-0.6417 0.425 -1.075 0.425Zm7.45 1.2c0 -0.4333 0.1417 -0.7917 0.425 -1.075s0.6417 -0.425 1.075 -0.425h2c0.4333 0 0.7917 0.1417 1.075 0.425s0.425 0.6417 0.425 1.075c0 0.4333 -0.1417 0.7917 -0.425 1.075s-0.6417 0.425 -1.075 0.425h-2c-0.4333 0 -0.7917 -0.1417 -1.075 -0.425s-0.425 -0.6417 -0.425 -1.075Zm-10 -9.99999c-0.4333 0 -0.7917 -0.14167 -1.075 -0.425 -0.2833 -0.28333 -0.425 -0.64167 -0.425 -1.075v-2c0 -0.43333 0.1417 -0.79167 0.425 -1.075 0.2833 -0.283334 0.6417 -0.425001 1.075 -0.425001 0.4333 0 0.7917 0.141667 1.075 0.425001 0.2833 0.28333 0.425 0.64167 0.425 1.075v2c0 0.43333 -0.1417 0.79167 -0.425 1.075 -0.2833 0.28333 -0.6417 0.425 -1.075 0.425Zm7.2 2.8c-0.3 -0.3 -0.45 -0.65 -0.45 -1.05s0.15 -0.75 0.45 -1.05l1.45 -1.45c0.3 -0.3 0.65 -0.45 1.05 -0.45s0.75 0.15 1.05 0.45c0.3 0.3 0.45 0.65 0.45 1.05s-0.15 0.75 -0.45 1.05l-1.45 1.45c-0.3 0.3 -0.65 0.45 -1.05 0.45s-0.75 -0.15 -1.05 -0.45Z" stroke-width="1"></path>
</svg>