<svg xmlns="http://www.w3.org/2000/svg" fill="none" viewBox="0 0 24 24" id="Bomb-Fill--Streamline-Rounded-Fill-Material" height="24" width="24">
  <desc>
    Bomb Fill Streamline Icon: https://streamlinehq.com
  </desc>
  <path fill="#000000" d="M16.7749 7.1998c-0.08335 0 -0.15 -0.00835 -0.2 -0.025 -0.05 -0.01665 -0.10835 -0.04165 -0.175 -0.075l-0.65 -0.375c-0.3 -0.18335 -0.62085 -0.22915 -0.9625 -0.1375 -0.34165 0.09165 -0.59585 0.2875 -0.7625 0.5875l-0.1 0.2 1.525 0.875c0.26665 0.16665 0.44165 0.39585 0.525 0.6875 0.08335 0.29165 0.04165 0.57085 -0.125 0.8375l-0.85 1.525c0.38335 0.6 0.67085 1.2375 0.8625 1.9125 0.19165 0.675 0.2875 1.37085 0.2875 2.0875 0 2.08335 -0.72915 3.85415 -2.1875 5.3125 -1.45835 1.45835 -3.22915 2.1875 -5.3125 2.1875s-3.854165 -0.7375 -5.3125 -2.2125c-1.45833 -1.475 -2.1875 -3.25415 -2.1875 -5.3375 0 -2.08335 0.725 -3.84585 2.175 -5.2875 1.45 -1.44165 3.21665 -2.1625 5.3 -2.1625h0.3l0.85 -1.5c0.15 -0.28335 0.375 -0.4625 0.675 -0.5375 0.3 -0.075 0.59165 -0.0375 0.875 0.1125l1.3 0.75 0.125 -0.2c0.38335 -0.65 0.9375 -1.07085 1.6625 -1.2625 0.725 -0.19166 1.42085 -0.10415 2.0875 0.2625l0.65 0.375c0.11665 0.06665 0.20835 0.15835 0.275 0.275 0.06665 0.11665 0.1 0.24165 0.1 0.375 0 0.21665 -0.07085 0.39585 -0.2125 0.5375s-0.32085 0.2125 -0.5375 0.2125Zm3.725 0.6c0 -0.21665 0.07085 -0.39585 0.2125 -0.5375s0.32085 -0.2125 0.5375 -0.2125h1c0.21665 0 0.39585 0.07085 0.5375 0.2125s0.2125 0.32085 0.2125 0.5375c0 0.21665 -0.07085 0.39585 -0.2125 0.5375s-0.32085 0.2125 -0.5375 0.2125h-1c-0.21665 0 -0.39585 -0.07085 -0.5375 -0.2125s-0.2125 -0.32085 -0.2125 -0.5375Zm-5 -4.999995c-0.21665 0 -0.39585 -0.070835 -0.5375 -0.2125 -0.14165 -0.141665 -0.2125 -0.320835 -0.2125 -0.5375v-1c0 -0.216665 0.07085 -0.395835 0.2125 -0.5375 0.14165 -0.141667 0.32085 -0.2125005 0.5375 -0.2125005 0.21665 0 0.39585 0.0708335 0.5375 0.2125005 0.14165 0.141665 0.2125 0.320835 0.2125 0.5375v1c0 0.216665 -0.07085 0.395835 -0.2125 0.5375 -0.14165 0.141665 -0.32085 0.2125 -0.5375 0.2125Zm3.6 1.4c-0.15 -0.15 -0.225 -0.325 -0.225 -0.525s0.075 -0.375 0.225 -0.525l0.725 -0.725c0.15 -0.15 0.325 -0.225 0.525 -0.225s0.375 0.075 0.525 0.225c0.15 0.15 0.225 0.325 0.225 0.525s-0.075 0.375 -0.225 0.525l-0.725 0.725c-0.15 0.15 -0.325 0.225 -0.525 0.225s-0.375 -0.075 -0.525 -0.225Z" stroke-width="0.5"></path>
</svg>