<svg viewBox="0 0 24 24" fill="none" xmlns="http://www.w3.org/2000/svg" id="Dna--Streamline-Solar-Broken">
  <desc>
    DNA Streamline Icon: https://streamlinehq.com
  </desc>
  <path d="m11.8476 12.1524 0.1986 0.0684c3.259 1.122 7.1839 0.0491 9.9538 -2.7208m-10.1524 2.6524 -0.5574 -0.1918C8.24848 10.9134 4.58525 11.9147 2 14.5m9.8476 -2.3476 -0.0684 -0.1986C10.6572 8.69481 11.7301 4.76991 14.5 2m-2.6524 10.1524 0.1918 0.5574C13.0866 15.7515 12.0853 19.4147 9.5 22" stroke="#000000" stroke-linecap="round" stroke-width="1.5"></path>
  <path d="m10 15 1.8431 1.9217m-5.07845 -5.0784L8 13.0786" stroke="#000000" stroke-linecap="round" stroke-width="1.5"></path>
  <path d="M11.8438 6.76465 14 9m2 2 0.9222 0.8431" stroke="#000000" stroke-linecap="round" stroke-width="1.5"></path>
  <path d="m3.99976 13.0002 3.5 3.5" stroke="#000000" stroke-linecap="round" stroke-width="1.5"></path>
  <path d="m19.7783 10.8906 -3.5 -3.49998" stroke="#000000" stroke-linecap="round" stroke-width="1.5"></path>
  <path d="m9.30469 18.1914 1.58701 1.587" stroke="#000000" stroke-linecap="round" stroke-width="1.5"></path>
  <path d="m14.5869 5.58691 -1.587 -1.58702" stroke="#000000" stroke-linecap="round" stroke-width="1.5"></path>
</svg>