<svg xmlns="http://www.w3.org/2000/svg" viewBox="0 0 24 24" id="Hair-Fill--Streamline-Mingcute-Fill">
  <desc>
    Hair Fill Streamline Icon: https://streamlinehq.com
  </desc>
  <g fill="none" fill-rule="nonzero">
    <path d="M24 0v24H0V0h24ZM12.593 23.258l-0.011 0.002 -0.071 0.035 -0.02 0.004 -0.014 -0.004 -0.071 -0.035c-0.01 -0.004 -0.019 -0.001 -0.024 0.005l-0.004 0.01 -0.017 0.428 0.005 0.02 0.01 0.013 0.104 0.074 0.015 0.004 0.012 -0.004 0.104 -0.074 0.012 -0.016 0.004 -0.017 -0.017 -0.427c-0.002 -0.01 -0.009 -0.017 -0.017 -0.018Zm0.265 -0.113 -0.013 0.002 -0.185 0.093 -0.01 0.01 -0.003 0.011 0.018 0.43 0.005 0.012 0.008 0.007 0.201 0.093c0.012 0.004 0.023 0 0.029 -0.008l0.004 -0.014 -0.034 -0.614c-0.003 -0.012 -0.01 -0.02 -0.02 -0.022Zm-0.715 0.002a0.023 0.023 0 0 0 -0.027 0.006l-0.006 0.014 -0.034 0.614c0 0.012 0.007 0.02 0.017 0.024l0.015 -0.002 0.201 -0.093 0.01 -0.008 0.004 -0.011 0.017 -0.43 -0.003 -0.012 -0.01 -0.01 -0.184 -0.092Z" stroke-width="1"></path>
    <path fill="#000000" d="M12 3a9 9 0 0 0 -9 9v6a3 3 0 0 0 3 3h1.382a2 2 0 0 0 1.789 -1.106l0.175 -0.35a6.6 6.6 0 0 1 -0.904 -0.76C7.343 17.678 6.5 16.054 6.5 14c0 -0.735 0.124 -1.466 0.349 -2.157 0.1 -0.307 0.377 -0.343 0.651 -0.343 1.69 0 3.185 -0.839 4.091 -2.125a0.5 0.5 0 0 1 0.818 0A4.993 4.993 0 0 0 16.5 11.5c0.274 0 0.552 0.036 0.651 0.343A7 7 0 0 1 17.5 14c0 2.055 -0.843 3.678 -1.942 4.784 -0.285 0.287 -0.59 0.541 -0.904 0.76l0.175 0.35A2 2 0 0 0 16.618 21H18a3 3 0 0 0 3 -3v-6a9 9 0 0 0 -9 -9Z" stroke-width="1"></path>
  </g>
</svg>