<svg xmlns="http://www.w3.org/2000/svg" viewBox="0 0 24 24" id="Hair-2-Fill--Streamline-Mingcute-Fill">
  <desc>
    Hair 2 Fill Streamline Icon: https://streamlinehq.com
  </desc>
  <g fill="none" fill-rule="nonzero">
    <path d="M24 0v24H0V0h24ZM12.593 23.258l-0.011 0.002 -0.071 0.035 -0.02 0.004 -0.014 -0.004 -0.071 -0.035c-0.01 -0.004 -0.019 -0.001 -0.024 0.005l-0.004 0.01 -0.017 0.428 0.005 0.02 0.01 0.013 0.104 0.074 0.015 0.004 0.012 -0.004 0.104 -0.074 0.012 -0.016 0.004 -0.017 -0.017 -0.427c-0.002 -0.01 -0.009 -0.017 -0.017 -0.018Zm0.265 -0.113 -0.013 0.002 -0.185 0.093 -0.01 0.01 -0.003 0.011 0.018 0.43 0.005 0.012 0.008 0.007 0.201 0.093c0.012 0.004 0.023 0 0.029 -0.008l0.004 -0.014 -0.034 -0.614c-0.003 -0.012 -0.01 -0.02 -0.02 -0.022Zm-0.715 0.002a0.023 0.023 0 0 0 -0.027 0.006l-0.006 0.014 -0.034 0.614c0 0.012 0.007 0.02 0.017 0.024l0.015 -0.002 0.201 -0.093 0.01 -0.008 0.004 -0.011 0.017 -0.43 -0.003 -0.012 -0.01 -0.01 -0.184 -0.092Z" stroke-width="1"></path>
    <path fill="#000000" d="M18.8 6.4c-1.884 -2.512 -4.28 -3.9 -6.8 -3.9 -2.52 0 -4.916 1.388 -6.8 3.9 -1.417 1.889 -3.126 4.44 -3.362 7.124 -0.121 1.384 0.147 2.801 1.019 4.15 0.861 1.332 2.268 2.531 4.315 3.58 1.259 0.645 2.63 -0.22 2.809 -1.483 -0.404 -0.27 -0.8 -0.607 -1.162 -1.001 -1.013 -1.105 -1.82 -2.723 -1.82 -4.77 0 -3.428 1.77 -5.735 3.9 -6.344 0.282 -0.08 0.6 0.132 0.634 0.424a5 5 0 0 0 4.917 4.42c0.674 0.006 0.55 1.06 0.55 1.5 0 2.047 -0.806 3.665 -1.82 4.77 -0.362 0.396 -0.76 0.734 -1.164 1.003 0.16 1.268 1.518 2.14 2.778 1.531 2.165 -1.044 3.643 -2.243 4.538 -3.585 0.907 -1.362 1.163 -2.797 1.007 -4.194 -0.3 -2.69 -2.138 -5.257 -3.54 -7.125Z" stroke-width="1"></path>
  </g>
</svg>