<svg xmlns="http://www.w3.org/2000/svg" fill="none" viewBox="0 0 48 48" id="Location-Sharp--Streamline-Ionic-Sharp">
  <desc>
    Location Sharp Streamline Icon: https://streamlinehq.com
  </desc>
  <path fill="#000000" d="M24 0.48C14.7254 0.48 7.2 7.2536 7.2 15.6 7.2 29.04 24 47.52 24 47.52S40.8 29.04 40.8 15.6C40.8 7.2536 33.2746 0.48 24 0.48ZM24 24c-1.3291 0 -2.6283 -0.3941 -3.7334 -1.1325 -1.1051 -0.7383 -1.9664 -1.788 -2.4751 -3.0159 -0.5086 -1.2279 -0.6418 -2.5791 -0.3824 -3.8827 0.2593 -1.3035 0.8994 -2.5008 1.8391 -3.4407 0.9399 -0.9397 2.1372 -1.5798 3.4407 -1.839 1.3036 -0.2594 2.6548 -0.1263 3.8827 0.3823 1.2279 0.5087 2.2775 1.37 3.0158 2.4751 0.7385 1.1051 1.1326 2.4043 1.1326 3.7334 -0.002 1.7817 -0.7105 3.4898 -1.9704 4.7496C27.4898 23.2895 25.7817 23.998 24 24Z" stroke-width="1"></path>
</svg>