<svg xmlns="http://www.w3.org/2000/svg" fill="none" viewBox="0 0 48 48" id="Person--Streamline-Ionic-Filled">
  <desc>
    Person Streamline Icon: https://streamlinehq.com
  </desc>
  <path fill="#000000" d="M32.048 3.9009C30.0046 1.6949 27.1507 0.48 24.0008 0.48c-3.1669 0 -6.0302 1.2075 -8.064 3.3999 -2.0559 2.2165 -3.0576 5.2289 -2.8224 8.4819C13.5805 18.7794 18.4641 24 24.0008 24c5.5365 0 10.4117 -5.2196 10.8853 -11.6361 0.2383 -3.2235 -0.7697 -6.2297 -2.8381 -8.463Z" stroke-width="1"></path>
  <path fill="#000000" d="M42.48 47.5197H5.52c-0.4838 0.0064 -0.9629 -0.0953 -1.4024 -0.2973 -0.4396 -0.2023 -0.8285 -0.4999 -1.1386 -0.8713 -0.6825 -0.8158 -0.9576 -1.9299 -0.7539 -3.0565 0.8862 -4.9161 3.6519 -9.0458 7.999 -11.9449C14.086 28.7763 18.9779 27.3598 24 27.3598s9.9141 1.4175 13.776 3.9899c4.347 2.8981 7.1127 7.0277 7.9989 11.9439 0.2037 1.1266 -0.0714 2.2407 -0.7539 3.0565 -0.3099 0.3716 -0.6989 0.6693 -1.1384 0.8717 -0.4396 0.2023 -0.9187 0.3042 -1.4026 0.2979Z" stroke-width="1"></path>
</svg>