<svg xmlns="http://www.w3.org/2000/svg" fill="none" viewBox="0 0 48 48" id="Person-Raised-Hand-Fill--Streamline-Rounded-Fill-Material">
  <desc>
    Person Raised Hand Fill Streamline Icon: https://streamlinehq.com
  </desc>
  <path fill="#000000" d="M5.5 45.9998c-0.425 0 -0.78117 -0.1447 -1.0685 -0.434 -0.28767 -0.289 -0.4315 -0.6473 -0.4315 -1.075 0 -0.4273 0.14383 -0.7827 0.4315 -1.066 0.28733 -0.2833 0.6435 -0.425 1.0685 -0.425h37c0.425 0 0.7813 0.1447 1.069 0.434 0.2873 0.289 0.431 0.6473 0.431 1.075 0 0.4273 -0.1437 0.7827 -0.431 1.066 -0.2877 0.2833 -0.644 0.425 -1.069 0.425h-37Zm4 -6c-0.425 0 -0.78117 -0.1438 -1.0685 -0.4315C8.14383 39.281 8 38.9248 8 38.4998v-9c-1.3 -3.0333 -2.2 -5.4917 -2.7 -7.375 -0.5 -1.8833 -0.75 -3.775 -0.75 -5.675 0 -1.9333 0.24167 -3.9667 0.725 -6.1 0.48333 -2.13333 1.15833 -4.15 2.025 -6.05 0.33333 -0.73333 0.77417 -1.29166 1.3225 -1.675 0.54833 -0.38333 1.1575 -0.575 1.8275 -0.575 0.9 0 1.5833 0.29167 2.05 0.875 0.4667 0.58334 0.7 1.45834 0.7 2.625v6.55c0 1.4667 0.2833 2.85 0.85 4.15 0.5667 1.3 1.3417 2.4333 2.325 3.4 0.9833 0.9667 2.1215 1.725 3.4145 2.275 1.293 0.55 2.6965 0.825 4.2105 0.825 2.7 0 5.05 0.2 7.05 0.6 2 0.4 3.6667 0.9833 5 1.75s2.325 1.7417 2.975 2.925c0.65 1.1833 0.975 2.575 0.975 4.175v6.3c0 0.425 -0.1437 0.7812 -0.431 1.0685 -0.2877 0.2877 -0.644 0.4315 -1.069 0.4315h-19v-1.85c0 -1.27 0.4313 -2.3625 1.294 -3.2775 0.8623 -0.915 1.931 -1.3725 3.206 -1.3725h6c0.425 0 0.7813 -0.1447 1.069 -0.434 0.2873 -0.289 0.431 -0.6473 0.431 -1.075 0 -0.4273 -0.1437 -0.7827 -0.431 -1.066 -0.2877 -0.2833 -0.644 -0.425 -1.069 -0.425h-6c-2.0937 0 -3.8672 0.751 -5.3205 2.253 -1.453 1.5017 -2.1795 3.3007 -2.1795 5.397v1.85h-7Zm14.5 -20c-2.2 0 -4.0833 -0.7833 -5.65 -2.35s-2.35 -3.45 -2.35 -5.65 0.7833 -4.08333 2.35 -5.65c1.5667 -1.56666 3.45 -2.35 5.65 -2.35s4.0833 0.78334 5.65 2.35c1.5667 1.56667 2.35 3.45 2.35 5.65s-0.7833 4.0833 -2.35 5.65 -3.45 2.35 -5.65 2.35Z" stroke-width="1"></path>
</svg>