<svg xmlns="http://www.w3.org/2000/svg" fill="none" viewBox="0 0 48 48" id="Laundry-Fill--Streamline-Rounded-Fill-Material">
  <desc>
    Laundry Fill Streamline Icon: https://streamlinehq.com
  </desc>
  <path fill="#000000" d="M8.3498 37.4c-0.26666 -0.3333 -0.38333 -0.7083 -0.35 -1.125 0.03334 -0.4167 0.21667 -0.7583 0.55 -1.025l2.8 -2.35c0.7667 -0.6333 1.6167 -1.1167 2.55 -1.45 0.9333 -0.3333 1.8833 -0.5 2.85 -0.5 0.9667 0 1.9083 0.1667 2.825 0.5 0.9167 0.3333 1.7583 0.8167 2.525 1.45l5.8 4.95c0.4667 0.4 0.9917 0.6917 1.575 0.875 0.5833 0.1833 1.1917 0.275 1.825 0.275s1.2417 -0.0917 1.825 -0.275c0.5833 -0.1833 1.1083 -0.475 1.575 -0.875l2.8 -2.45c0.3333 -0.2667 0.7083 -0.3833 1.125 -0.35 0.4167 0.0333 0.7583 0.2167 1.025 0.55 0.2667 0.3333 0.3833 0.7083 0.35 1.125 -0.0333 0.4167 -0.2167 0.7583 -0.55 1.025l-2.8 2.35c-0.7667 0.6333 -1.6083 1.1083 -2.525 1.425 -0.9167 0.3167 -1.8583 0.475 -2.825 0.475 -0.9667 0 -1.9167 -0.1583 -2.85 -0.475s-1.7833 -0.7917 -2.55 -1.425l-5.75 -4.95c-0.4667 -0.4 -0.9917 -0.6917 -1.575 -0.875 -0.5833 -0.1833 -1.1917 -0.275 -1.825 -0.275s-1.2417 0.0917 -1.825 0.275c-0.5833 0.1833 -1.1083 0.475 -1.575 0.875l-2.85 2.45c-0.3333 0.2667 -0.70833 0.3833 -1.125 0.35 -0.41666 -0.0333 -0.75833 -0.2167 -1.025 -0.55Zm3.65 -8.4v-7.05l-2.45 1.35c-0.36666 0.2 -0.75 0.25 -1.15 0.15 -0.4 -0.1 -0.7 -0.3333 -0.9 -0.7l-4.5 -7.85c-0.2 -0.3667 -0.25 -0.75 -0.15 -1.15 0.1 -0.4 0.33334 -0.7 0.7 -0.9l10.7 -6.15c0.3667 -0.23333 0.7583 -0.40833 1.175 -0.525 0.4167 -0.11667 0.8417 -0.175 1.275 -0.175 0.4 0 0.7583 0.11667 1.075 0.35 0.3167 0.23333 0.5583 0.53333 0.725 0.9 0.4667 1.26667 1.175 2.375 2.125 3.325 0.95 0.95 2.075 1.425 3.375 1.425 1.3 0 2.425 -0.475 3.375 -1.425 0.95 -0.95 1.6583 -2.05833 2.125 -3.325 0.1667 -0.36667 0.4167 -0.66667 0.75 -0.9 0.3333 -0.23333 0.7 -0.35 1.1 -0.35 0.4333 0 0.85 0.05833 1.25 0.175s0.7833 0.29167 1.15 0.525l10.7 6.15c0.3667 0.2 0.6 0.5 0.7 0.9 0.1 0.4 0.05 0.7833 -0.15 1.15l-4.5 7.85c-0.2 0.3667 -0.5 0.6 -0.9 0.7 -0.4 0.1 -0.7833 0.05 -1.15 -0.15l-2.45 -1.35v10.8l-3 2.55c-0.2333 0.2333 -0.4917 0.4167 -0.775 0.55 -0.2833 0.1333 -0.5917 0.2 -0.925 0.2 -0.2667 0 -0.525 -0.0417 -0.775 -0.125s-0.475 -0.2083 -0.675 -0.375l-5.8 -4.95c-1.0333 -0.8667 -2.175 -1.525 -3.425 -1.975 -1.25 -0.45 -2.5417 -0.675 -3.875 -0.675 -0.8333 0 -1.6417 0.0833 -2.425 0.25 -0.7833 0.1667 -1.5583 0.4333 -2.325 0.8Z" stroke-width="1"></path>
</svg>