<svg xmlns="http://www.w3.org/2000/svg" fill="none" viewBox="0 0 24 24" id="Laundry-Fill--Streamline-Rounded-Fill-Material" height="24" width="24">
  <desc>
    Laundry Fill Streamline Icon: https://streamlinehq.com
  </desc>
  <path fill="#000000" d="M4.1749 18.7c-0.13333 -0.16665 -0.191665 -0.35415 -0.175 -0.5625 0.01667 -0.20835 0.108335 -0.37915 0.275 -0.5125l1.4 -1.175c0.38335 -0.31665 0.80835 -0.55835 1.275 -0.725 0.46665 -0.16665 0.94165 -0.25 1.425 -0.25 0.48335 0 0.95415 0.08335 1.4125 0.25 0.45835 0.16665 0.87915 0.40835 1.2625 0.725l2.9 2.475c0.23335 0.2 0.49585 0.34585 0.7875 0.4375 0.29165 0.09165 0.59585 0.1375 0.9125 0.1375s0.62085 -0.04585 0.9125 -0.1375c0.29165 -0.09165 0.55415 -0.2375 0.7875 -0.4375l1.4 -1.225c0.16665 -0.13335 0.35415 -0.19165 0.5625 -0.175 0.20835 0.01665 0.37915 0.10835 0.5125 0.275 0.13335 0.16665 0.19165 0.35415 0.175 0.5625 -0.01665 0.20835 -0.10835 0.37915 -0.275 0.5125l-1.4 1.175c-0.38335 0.31665 -0.80415 0.55415 -1.2625 0.7125 -0.45835 0.15835 -0.92915 0.2375 -1.4125 0.2375 -0.48335 0 -0.95835 -0.07915 -1.425 -0.2375s-0.89165 -0.39585 -1.275 -0.7125l-2.875 -2.475c-0.23335 -0.2 -0.49585 -0.34585 -0.7875 -0.4375 -0.29165 -0.09165 -0.59585 -0.1375 -0.9125 -0.1375s-0.62085 0.04585 -0.9125 0.1375c-0.29165 0.09165 -0.55415 0.2375 -0.7875 0.4375l-1.425 1.225c-0.16665 0.13335 -0.354165 0.19165 -0.5625 0.175 -0.20833 -0.01665 -0.379165 -0.10835 -0.5125 -0.275Zm1.825 -4.2v-3.525l-1.225 0.675c-0.18333 0.1 -0.375 0.125 -0.575 0.075 -0.2 -0.05 -0.35 -0.16665 -0.45 -0.35l-2.25 -3.925c-0.1 -0.18335 -0.125 -0.375 -0.075 -0.575 0.05 -0.2 0.16667 -0.35 0.35 -0.45l5.35 -3.075c0.18335 -0.116665 0.37915 -0.204165 0.5875 -0.2625 0.20835 -0.058335 0.42085 -0.0875 0.6375 -0.0875 0.2 0 0.37915 0.058335 0.5375 0.175 0.15835 0.116665 0.27915 0.266665 0.3625 0.45 0.23335 0.633335 0.5875 1.1875 1.0625 1.6625 0.475 0.475 1.0375 0.7125 1.6875 0.7125 0.65 0 1.2125 -0.2375 1.6875 -0.7125 0.475 -0.475 0.82915 -1.029165 1.0625 -1.6625 0.08335 -0.183335 0.20835 -0.333335 0.375 -0.45 0.16665 -0.116665 0.35 -0.175 0.55 -0.175 0.21665 0 0.425 0.029165 0.625 0.0875s0.39165 0.145835 0.575 0.2625l5.35 3.075c0.18335 0.1 0.3 0.25 0.35 0.45 0.05 0.2 0.025 0.39165 -0.075 0.575l-2.25 3.925c-0.1 0.18335 -0.25 0.3 -0.45 0.35 -0.2 0.05 -0.39165 0.025 -0.575 -0.075l-1.225 -0.675v5.4l-1.5 1.275c-0.11665 0.11665 -0.24585 0.20835 -0.3875 0.275 -0.14165 0.06665 -0.29585 0.1 -0.4625 0.1 -0.13335 0 -0.2625 -0.02085 -0.3875 -0.0625s-0.2375 -0.10415 -0.3375 -0.1875l-2.9 -2.475c-0.51665 -0.43335 -1.0875 -0.7625 -1.7125 -0.9875 -0.625 -0.225 -1.27085 -0.3375 -1.9375 -0.3375 -0.41665 0 -0.82085 0.04165 -1.2125 0.125 -0.39165 0.08335 -0.77915 0.21665 -1.1625 0.4Z" stroke-width="0.5"></path>
</svg>