<svg xmlns="http://www.w3.org/2000/svg" viewBox="0 0 576 576" id="Gun--Streamline-Font-Awesome">
  <desc>
    Gun Streamline Icon: https://streamlinehq.com
  </desc>
<!--! Font Awesome Free 6.5.2 by @fontawesome - https://fontawesome.com License - https://fontawesome.com/license/free (Icons: CC BY 4.0, Fonts: SIL OFL 1.1, Code: MIT License) Copyright 2024 Fonticons, Inc.-->
  <path d="M523.2 92c0 -13.034 -10.486 -23.52 -23.52 -23.52S476.16 78.966 476.16 92v7.84H37.12c-17.346 0 -31.36 14.014 -31.36 31.36v109.76c0 17.346 14.014 31.36 31.36 31.36h9.8c20.384 0 35.378 19.208 30.38 39.004L38.1 468.516c-2.352 9.408 -0.196 19.306 5.684 26.95S58.778 507.52 68.48 507.52h94.08c14.406 0 26.95 -9.8 30.38 -23.716l25.48 -101.724h102.312c23.226 0 43.904 -14.602 51.646 -36.456l26.264 -73.304h30.478c8.33 0 16.268 -3.332 22.148 -9.212l22.246 -22.148h65.366c17.346 0 31.36 -14.014 31.36 -31.36v-78.4c0 -17.346 -14.014 -31.36 -31.36 -31.36H523.2V92ZM320.732 335.04H230.18l15.68 -62.72h102.9l-20.58 57.526c-1.078 3.136 -4.116 5.194 -7.35 5.194ZM84.16 162.56h376.32c8.624 0 15.68 7.056 15.68 15.68s-7.056 15.68 -15.68 15.68H84.16c-8.624 0 -15.68 -7.056 -15.68 -15.68s7.056 -15.68 15.68 -15.68Z" fill="#000000" stroke-width="1"></path>
</svg>