<svg xmlns="http://www.w3.org/2000/svg" viewBox="0 0 256 256" fill="#000000" id="Cloud-Sun-Fill--Streamline-Phosphor-Fill">
  <desc>
    Cloud Sun Fill Streamline Icon: https://streamlinehq.com
  </desc>
  <path d="M167.9038 69.0016c-7.7043 -0.0047 -15.374 1.0288 -22.8022 3.0726 -2.9323 -4.7844 -6.4944 -9.1529 -10.5907 -12.988l10.7032 -15.2728c3.9768 -5.6792 0.3143 -13.5336 -6.5924 -14.138 -3.2054 -0.2805 -6.3169 1.1704 -8.1626 3.8062L119.7559 48.743c-8.8017 -4.444 -18.5246 -6.7572 -28.3846 -6.7528H89.413l-3.2526 -18.3341c-0.9804 -6.8614 -9.0209 -10.0886 -14.4729 -5.8088 -2.6938 2.1146 -3.9548 5.5743 -3.2534 8.9264l3.2414 18.3903c-9.9858 3.3028 -18.9883 9.0478 -26.1899 16.7133l-15.329 -10.7258c-5.6299 -4.0428 -13.5251 -0.475 -14.2114 6.4221 -0.3264 3.2805 1.1662 6.477 3.8908 8.3329l15.2615 10.7146c-4.4598 8.7999 -6.7738 18.5303 -6.7529 28.3958v1.9358l-18.334 3.2414c-6.8272 1.196 -9.7994 9.3342 -5.35 14.6487 1.7106 2.0431 4.2384 3.2237 6.9032 3.2238 0.5243 -0.0007 1.0476 -0.0459 1.5644 -0.135l18.3677 -3.2414c1.6139 4.9135 3.8291 9.6086 6.5953 13.9784 -33.0096 30.6609 -20.4492 85.5578 22.6086 98.8145 5.5613 1.7123 11.3469 2.5855 17.1658 2.591h90.0382c65.8458 0 106.9994 -71.2802 74.0765 -128.3044 -15.2796 -26.465 -43.5174 -42.7681 -74.0765 -42.7681Zm-79.9989 54.8783c-11.8362 -2.0431 -24.0143 -0.405 -34.8898 4.6932 -17.9485 -29.6457 2.9262 -67.6041 37.5744 -68.325 14.7666 -0.3073 28.7447 6.6482 37.4048 18.6127 -18.3668 9.6656 -32.609 25.6592 -40.0895 45.0191Z" stroke-width="1"></path>
</svg>