<svg id="User-Target--Streamline-Atlas" xmlns="http://www.w3.org/2000/svg" viewBox="-0.5 -0.5 16 16" height="16" width="16">
  <desc>
    User Target Streamline Icon: https://streamlinehq.com
  </desc>
  <defs></defs>
  <path d="M1.5125 7.5a5.9875 5.9875 0 1 0 11.975 0 5.9875 5.9875 0 1 0 -11.975 0" fill="none" stroke="#000000" stroke-miterlimit="10" stroke-width="1"></path>
  <path d="m7.5 0.3125 0 2.99375" fill="none" stroke="#000000" stroke-miterlimit="10" stroke-width="1"></path>
  <path d="m7.5 11.693750000000001 0 2.99375" fill="none" stroke="#000000" stroke-miterlimit="10" stroke-width="1"></path>
  <path d="m14.6875 7.5 -2.99375 0" fill="none" stroke="#000000" stroke-miterlimit="10" stroke-width="1"></path>
  <path d="M3.30625 7.5 0.3125 7.5" fill="none" stroke="#000000" stroke-miterlimit="10" stroke-width="1"></path>
  <path d="M5.706250000000001 6.8999999999999995a1.7937500000000002 1.7937500000000002 0 1 0 3.5875000000000004 0 1.7937500000000002 1.7937500000000002 0 1 0 -3.5875000000000004 0" fill="none" stroke="#000000" stroke-miterlimit="10" stroke-width="1"></path>
  <path d="M4.50625 12.293750000000001v-0.625A2.9875000000000003 2.9875000000000003 0 0 1 7.5 8.7a2.9875000000000003 2.9875000000000003 0 0 1 2.99375 2.99375v0.625" fill="none" stroke="#000000" stroke-miterlimit="10" stroke-width="1"></path>
</svg>