<svg xmlns="http://www.w3.org/2000/svg" viewBox="0 0 16 16" fill="#000000" id="Backpack--Streamline-Phosphor" height="16" width="16">
  <desc>
    Backpack Streamline Icon: https://streamlinehq.com
  </desc>
  <path d="M10.8 2.4406V1.84c0 -0.9278375 -0.7521625 -1.68 -1.68 -1.68h-2.24c-0.9278375 0 -1.68 0.7521625 -1.68 1.68v0.6006C3.2728875 2.7214875 1.8429 4.37253125 1.84 6.32v8.4c0 0.61858125 0.50141875 1.120025 1.12 1.12h10.08c0.61858125 0.000025 1.12 -0.50141875 1.12 -1.12v-8.4c-0.0029 -1.94746875 -1.4328875 -3.5985125 -3.36 -3.8794ZM6.88 1.28h2.24c0.30926875 0.0000125 0.56 0.25073125 0.56 0.56v0.56h-3.36v-0.56c0 -0.30928125 0.25071875 -0.56 0.56 -0.56ZM10.8 10.8H5.2v-0.56c0 -0.30928125 0.25071875 -0.56 0.56 -0.56h4.48c0.30928125 0 0.56 0.25071875 0.56 0.56Zm-5.6 1.12h3.36v0.56c0 0.4310875 0.46666875 0.70051875 0.84 0.484975 0.1732625 -0.1000375 0.28 -0.28490625 0.28 -0.484975v-0.56h1.12v2.8H5.2Zm7.84 2.8h-1.12v-4.48c0 -0.92780625 -0.75219375 -1.67995625 -1.68 -1.68H5.76c-0.92786875 -0.00004375 -1.68 0.75213125 -1.68 1.68v4.48H2.96v-8.4c0 -1.5464 1.2536 -2.8 2.8 -2.8h4.48c1.5464 0 2.8 1.2536 2.8 2.8v8.4ZM9.68 5.76c0 0.30926875 -0.25073125 0.5599875 -0.56 0.56h-2.24c-0.4310875 0 -0.70051875 -0.46666875 -0.484975 -0.84 0.10003125 -0.17325625 0.2849125 -0.27999375 0.484975 -0.28h2.24c0.30928125 0 0.56 0.25071875 0.56 0.56Z" stroke-width="0.0625"></path>
</svg>