<svg xmlns="http://www.w3.org/2000/svg" fill="none" viewBox="0 0 48 48" id="Laundry-Fill--Streamline-Sharp-Fill-Material">
  <desc>
    Laundry Fill Streamline Icon: https://streamlinehq.com
  </desc>
  <path fill="#000000" d="M12 29v-7.05L8.25 24l-6 -10.4L15.45 6H18c0.5333 1.5 1.2833 2.875 2.25 4.125C21.2167 11.375 22.4667 12 24 12c1.5667 0 2.8333 -0.625 3.8 -1.875C28.7667 8.875 29.5 7.5 30 6h2.55l13.15 7.65L39.75 24 36 21.95v10.8l-3 2.55c-0.2 0.2 -0.4667 0.375 -0.8 0.525 -0.3333 0.15 -0.6333 0.225 -0.9 0.225 -0.2667 0 -0.5333 -0.0417 -0.8 -0.125 -0.2667 -0.0833 -0.4833 -0.2083 -0.65 -0.375l-5.8 -4.95c-1.0333 -0.8667 -2.1833 -1.525 -3.45 -1.975 -1.2667 -0.45 -2.55 -0.675 -3.85 -0.675 -0.8333 0 -1.6417 0.0917 -2.425 0.275 -0.7833 0.1833 -1.5583 0.4417 -2.325 0.775Zm-2.65 9.55 -1.95 -2.3 3.95 -3.35c0.7667 -0.6333 1.6167 -1.1167 2.55 -1.45 0.9333 -0.3333 1.8833 -0.5 2.85 -0.5 0.9667 0 1.9083 0.1667 2.825 0.5 0.9167 0.3333 1.7583 0.8167 2.525 1.45l5.8 4.95c0.4667 0.4 0.9917 0.6917 1.575 0.875 0.5833 0.1833 1.1917 0.275 1.825 0.275 0.6 0 1.2 -0.1 1.8 -0.3 0.6 -0.2 1.1333 -0.4833 1.6 -0.85l3.95 -3.45 1.95 2.35 -3.95 3.35c-0.7667 0.6333 -1.6083 1.1083 -2.525 1.425 -0.9167 0.3167 -1.8583 0.475 -2.825 0.475 -0.9667 0 -1.9167 -0.1583 -2.85 -0.475s-1.7833 -0.7917 -2.55 -1.425l-5.75 -4.95c-0.4667 -0.4 -1 -0.6917 -1.6 -0.875 -0.6 -0.1833 -1.2 -0.275 -1.8 -0.275 -0.6333 0 -1.2417 0.0917 -1.825 0.275 -0.5833 0.1833 -1.1083 0.475 -1.575 0.875l-4 3.4Z" stroke-width="1"></path>
</svg>